<?xml version="1.0" encoding="UTF-8" standalone="no"?><!DOCTYPE svg PUBLIC "-//W3C//DTD SVG 1.1//EN" "http://www.w3.org/Graphics/SVG/1.1/DTD/svg11.dtd">
<svg width="100%" height="100%" viewBox="0 0 24 24" version="1.1" xmlns="http://www.w3.org/2000/svg"
     xml:space="preserve"
     style="fill-rule:evenodd;clip-rule:evenodd;stroke-linecap:round;stroke-linejoin:round;"><g><path d="M22.528,6l-5.856,0l-3.184,-3.265c0.132,-0.242 0.214,-0.515 0.214,-0.809c0,-0.938 -0.764,-1.702 -1.702,-1.702c-0.938,0 -1.702,0.764 -1.702,1.702c0,0.295 0.082,0.568 0.214,0.809l-3.183,3.265l-5.856,0c-0.789,0 -1.482,0.705 -1.482,1.508l0,15.061c0,0.789 0.665,1.432 1.481,1.432l21.056,0c0.807,0 1.463,-0.643 1.463,-1.432l0,-15.061c0,-0.803 -0.683,-1.508 -1.463,-1.508Zm-10.528,-2.372c0.279,0 0.539,-0.074 0.772,-0.194l2.503,2.566l-6.549,0l2.502,-2.566c0.233,0.12 0.493,0.194 0.772,0.194Zm0,-2.404c0.387,0 0.702,0.315 0.702,0.702c0,0.387 -0.315,0.702 -0.702,0.702c-0.387,0 -0.702,-0.315 -0.702,-0.702c0,-0.387 0.315,-0.702 0.702,-0.702Zm10.991,21.344c0,0.234 -0.212,0.432 -0.463,0.432l-21.055,0c-0.256,0 -0.481,-0.202 -0.481,-0.432l0,-15.06c-0.001,-0.252 0.242,-0.508 0.481,-0.508l21.055,0c0.233,0 0.463,0.251 0.463,0.507l0,15.061Z" style="fill-rule:nonzero;"/><path d="M8.501,14.334c0,0.823 -0.678,1.5 -1.5,1.5l-1.5,0l0,-3l1.5,0c0.822,0 1.5,0.677 1.5,1.5Z" style="fill:none;fill-rule:nonzero;stroke:#000;stroke-width:1px;"/><path d="M5.501,18.833l0,-3" style="fill:none;fill-rule:nonzero;stroke:#000;stroke-width:1px;"/><path d="M10.501,12.834c1.645,0 3,1.354 3,3c0,1.646 -1.355,3 -3,3l0,-6Z" style="fill:none;fill-rule:nonzero;stroke:#000;stroke-width:1px;"/><path d="M15.501,18.834l0,-5c0,-0.549 0.451,-1 1,-1l2,0" style="fill:none;fill-rule:nonzero;stroke:#000;stroke-width:1px;"/><path d="M15.501,15.833l2,0" style="fill:none;fill-rule:nonzero;stroke:#000;stroke-width:1px;"/></g></svg>